<?xml version="1.0" encoding="UTF-8"?>
<svg id="Warstwa_1" data-name="Warstwa 1" xmlns="http://www.w3.org/2000/svg" viewBox="0 0 170.37 170.37">
  <defs>
    <style>
      .cls-1 {
        fill: #181818;
        stroke-width: 0px;
      }

      .cls-2 {
        fill: #fff;
        stroke: #1d1d1b;
        stroke-miterlimit: 10;
        stroke-width: 4px;
      }
    </style>
  </defs>
  <rect class="cls-2" x="2" y="2" width="166.37" height="166.37" rx="28.45" ry="28.45"/>
  <g>
    <path class="cls-1" d="M168.36,67.98v72.97c0,11.95-7.36,22.16-17.79,26.38.38-.7.75-1.41,1.11-2.13,9.9-18.55,11.91-36.86,3.7-55.22-8.49-18.55-23.38-33.57-40.14-46.95-7.21-5.64-17.62-13.56-21.76-22.14-2.66-4.85.46-11.11,5.54-12.11,9.81-1.84,25.59,7.71,33.2,14.76,6.88,6.28,12.13,13.8,15.92,22.39,1.75,3.98,6.19,6.04,10.38,4.85l9.84-2.8Z"/>
    <path class="cls-1" d="M84.93,123.47c3.44,4.76,5.96,9.73,3.1,15.09-1.39,2.62-3.22,4.27-5.5,4.97-5.84,1.59-12.34-1.3-18.17-4.27-8.95-4.76-17.49-11.74-25.62-20.96-6.52-7.39-11.39-17.25-14.6-29.57-1.31-5.04-6.63-7.89-11.52-6.09l-10.62,3.93V31.48C2,15.77,14.73,3.03,30.44,3.03h.39c-4.28,7.49-7.24,16.19-8.52,26.06-2.82,30.63,18.42,53.95,41.09,74.17,6.85,6.08,15.94,12.6,21.53,20.21Z"/>
  </g>
</svg>